<svg width="18" height="18" viewBox="0 0 18 18" fill="none" xmlns="http://www.w3.org/2000/svg">
<path d="M16 0H2C0.89 0 0 0.9 0 2V16C0 17.1 0.89 18 2 18H16C17.11 18 18 17.1 18 16V2C18 0.9 17.11 0 16 0ZM7 14L2 9L3.41 7.59L7 11.17L14.59 3.58L16 5L7 14Z" fill="#4C9900"/>
<path d="M0 0H2V2H0V0Z" fill="#4C9900"/>
<path d="M0 0H2V2H0V0Z" fill="#4C9900"/>
<path d="M0 0H2V2H0V0Z" fill="#4C9900"/>
<path d="M16 0H18V2H16V0Z" fill="#4C9900"/>
<path d="M16 0H18V2H16V0Z" fill="#4C9900"/>
<path d="M16 0H18V2H16V0Z" fill="#4C9900"/>
<path d="M0 16H2V18H0V16Z" fill="#4C9900"/>
<path d="M0 16H2V18H0V16Z" fill="#4C9900"/>
<path d="M0 16H2V18H0V16Z" fill="#4C9900"/>
<path d="M16 16H18V18H16V16Z" fill="#4C9900"/>
<path d="M16 16H18V18H16V16Z" fill="#4C9900"/>
<path d="M16 16H18V18H16V16Z" fill="#4C9900"/>
</svg>
