<svg width="36" height="36" viewBox="0 0 36 36" fill="none" xmlns="http://www.w3.org/2000/svg">
<path d="M17.9996 33.8824C20.0856 33.8851 22.1517 33.4755 24.079 32.6772C26.0063 31.8788 27.7568 30.7075 29.23 29.2305C30.707 27.7573 31.8783 26.0068 32.6767 24.0795C33.475 22.1522 33.8846 20.0861 33.8819 18C33.8846 15.914 33.475 13.8479 32.6766 11.9206C31.8783 9.99333 30.707 8.2428 29.23 6.76963C27.7568 5.29259 26.0063 4.12125 24.079 3.32291C22.1517 2.52457 20.0856 2.11499 17.9996 2.11769C15.9135 2.11503 13.8474 2.52464 11.9201 3.32297C9.99284 4.12131 8.24231 5.29263 6.76914 6.76963C5.29214 8.2428 4.12082 9.99333 3.32248 11.9206C2.52415 13.8479 2.11454 15.914 2.1172 18C2.1145 20.0861 2.52408 22.1522 3.32242 24.0795C4.12076 26.0068 5.2921 27.7573 6.76914 29.2305C8.24231 30.7075 9.99284 31.8788 11.9201 32.6771C13.8474 33.4754 15.9135 33.8851 17.9996 33.8824Z" fill="#5A5A5A"/>
<path fill-rule="evenodd" clip-rule="evenodd" d="M17.999 28.3236C18.5255 28.3236 19.0305 28.1145 19.4028 27.7421C19.7751 27.3698 19.9843 26.8649 19.9843 26.3383C19.9843 25.8118 19.7751 25.3068 19.4028 24.9345C19.0305 24.5622 18.5255 24.353 17.999 24.353C17.4724 24.353 16.9675 24.5622 16.5952 24.9345C16.2228 25.3068 16.0137 25.8118 16.0137 26.3383C16.0137 26.8649 16.2228 27.3698 16.5952 27.7421C16.9675 28.1145 17.4724 28.3236 17.999 28.3236Z" fill="#F4F4F4"/>
<path d="M18 8.4707V21.1766V8.4707Z" fill="#F4F4F4"/>
<path d="M18 8.4707V21.1766" stroke="#F4F4F4" stroke-width="3" stroke-linecap="round" stroke-linejoin="round"/>
</svg>
