<svg width="18" height="18" viewBox="0 0 18 18" fill="none" xmlns="http://www.w3.org/2000/svg">
<path fill-rule="evenodd" clip-rule="evenodd" d="M3.92919 16.0402C3.92919 15.0722 4.71239 14.2802 5.68039 14.2802C6.64839 14.2802 7.44039 15.0722 7.44039 16.0402C7.44039 17.0082 6.64839 17.8002 5.68039 17.8002C4.71239 17.8002 3.92919 17.0082 3.92919 16.0402ZM0.400391 1.96019V0.200195H3.27799L4.10519 1.96019H17.1204C17.6044 1.96019 18.0004 2.35619 18.0004 2.84019C18.0004 2.98979 17.9652 3.13939 17.8948 3.26259L14.7444 8.97379C14.4452 9.51939 13.8644 9.88019 13.2044 9.88019H6.64839L5.85639 11.3146L5.82999 11.4202C5.82999 11.5434 5.92679 11.6402 6.04999 11.6402H16.2404V13.4002H5.68039C4.71239 13.4002 3.92039 12.6082 3.92039 11.6402C3.92039 11.3322 3.99959 11.0418 4.14039 10.7954L5.32839 8.63939L2.16039 1.96019H0.400391ZM12.7292 16.0402C12.7292 15.0722 13.5124 14.2802 14.4804 14.2802C15.4484 14.2802 16.2404 15.0722 16.2404 16.0402C16.2404 17.0082 15.4484 17.8002 14.4804 17.8002C13.5124 17.8002 12.7292 17.0082 12.7292 16.0402ZM8.17312 5.27482L9.8913 7.03005L14.2277 2.6002L14.8004 3.18527L9.8913 8.2002L7.60039 5.8599L8.17312 5.27482Z" fill="white"/>
</svg>
