<svg width="24" height="24" viewBox="0 0 24 24" fill="none" xmlns="http://www.w3.org/2000/svg">
<circle opacity="0.4" cx="12" cy="7" r="5" fill="#4C9900"/>
<path fill-rule="evenodd" clip-rule="evenodd" d="M4.00002 17.9973C3.99866 17.6635 4.078 17.3338 4.23204 17.0331C4.71541 16.1234 6.07852 15.6413 7.20962 15.423C8.02536 15.2592 8.85238 15.1498 9.68449 15.0955C11.2251 14.9682 12.7746 14.9682 14.3152 15.0955C15.1473 15.1504 15.9742 15.2598 16.7901 15.423C17.9212 15.6413 19.2843 16.0779 19.7677 17.0331C20.0774 17.6461 20.0774 18.3577 19.7677 18.9707C19.2843 19.9258 17.9212 20.3625 16.7901 20.5717C15.9753 20.7423 15.148 20.8548 14.3152 20.9083C13.0613 21.0083 11.8015 21.0265 10.5449 20.9629C10.2549 20.9629 9.97452 20.9629 9.68449 20.9083C8.85483 20.8555 8.03069 20.7429 7.21929 20.5717C6.07852 20.3625 4.72508 19.9258 4.23204 18.9707C4.07879 18.6665 3.99953 18.334 4.00002 17.9973Z" fill="#4C9900"/>
</svg>
