<svg width="32" height="32" viewBox="0 0 32 32" fill="none" xmlns="http://www.w3.org/2000/svg">
<path d="M19.6581 4.57129H13.4867C12.6031 4.57129 11.8867 5.28763 11.8867 6.17129V9.76609V11.4284H19.6581V4.57129Z" fill="black"/>
<path d="M19.6581 4.57129H13.4867C12.6031 4.57129 11.8867 5.28763 11.8867 6.17129V9.76609V11.4284H19.6581V4.57129Z" fill="url(#paint0_linear_1495_27778)"/>
<path d="M27.2007 4.57129H21.0293V11.4284H28.8007V6.17129C28.8007 5.28763 28.0844 4.57129 27.2007 4.57129Z" fill="black"/>
<path d="M27.2007 4.57129H21.0293V11.4284H28.8007V6.17129C28.8007 5.28763 28.0844 4.57129 27.2007 4.57129Z" fill="black"/>
<path d="M27.2007 4.57129H21.0293V11.4284H28.8007V6.17129C28.8007 5.28763 28.0844 4.57129 27.2007 4.57129Z" fill="#FFC701"/>
<path d="M19.6581 12.7998H11.8867V19.6569H19.6581V12.7998Z" fill="url(#paint1_linear_1495_27778)"/>
<path d="M21.0293 19.6569H22.721H28.8007V12.7998H21.0293V19.6569Z" fill="black"/>
<path d="M21.0293 19.6569H22.721H28.8007V12.7998H21.0293V19.6569Z" fill="#FFC701"/>
<path d="M10.9716 12.1956V10.5142H6.38432L3.2002 15.7161V19.657H10.9716V12.1956ZM9.83829 15.9789C9.83829 16.2941 9.56845 16.5569 9.24464 16.5569H5.03512C4.81924 16.5569 4.60337 16.4518 4.5494 16.2941C4.44147 16.1365 4.44147 15.8738 4.5494 15.7161L6.81607 11.9329C6.92401 11.7752 7.13988 11.6702 7.30178 11.6702H9.24464C9.56845 11.6702 9.83829 11.9329 9.83829 12.2481V15.9789Z" fill="black"/>
<path d="M10.9716 12.1956V10.5142H6.38432L3.2002 15.7161V19.657H10.9716V12.1956ZM9.83829 15.9789C9.83829 16.2941 9.56845 16.5569 9.24464 16.5569H5.03512C4.81924 16.5569 4.60337 16.4518 4.5494 16.2941C4.44147 16.1365 4.44147 15.8738 4.5494 15.7161L6.81607 11.9329C6.92401 11.7752 7.13988 11.6702 7.30178 11.6702H9.24464C9.56845 11.6702 9.83829 11.9329 9.83829 12.2481V15.9789Z" fill="url(#paint2_linear_1495_27778)"/>
<path d="M24.5 27C25.6046 27 26.5 26.1046 26.5 25C26.5 23.8954 25.6046 23 24.5 23C23.3954 23 22.5 23.8954 22.5 25C22.5 26.1046 23.3954 27 24.5 27Z" fill="black"/>
<path d="M24.5 27C25.6046 27 26.5 26.1046 26.5 25C26.5 23.8954 25.6046 23 24.5 23C23.3954 23 22.5 23.8954 22.5 25C22.5 26.1046 23.3954 27 24.5 27Z" fill="url(#paint3_linear_1495_27778)"/>
<path d="M3.2002 21.0283V23.7712H4.21142C4.79687 22.7636 5.8081 22.0919 7.03221 22.0919C8.20311 22.0919 9.26756 22.7636 9.853 23.7712H21.5619C22.1474 22.7636 23.1586 22.0919 24.3827 22.0919C25.5536 22.0919 26.6181 22.7636 27.2035 23.7712H28.8002V21.0283H22.3603H3.2002Z" fill="black"/>
<path d="M3.2002 21.0283V23.7712H4.21142C4.79687 22.7636 5.8081 22.0919 7.03221 22.0919C8.20311 22.0919 9.26756 22.7636 9.853 23.7712H21.5619C22.1474 22.7636 23.1586 22.0919 24.3827 22.0919C25.5536 22.0919 26.6181 22.7636 27.2035 23.7712H28.8002V21.0283H22.3603H3.2002Z" fill="url(#paint4_linear_1495_27778)"/>
<path d="M7 23C5.9 23 5 23.9268 5 25C5 26.0732 5.9 27 7 27C8.1 27 9 26.0732 9 25C9 23.9268 8.1 23 7 23Z" fill="black"/>
<path d="M7 23C5.9 23 5 23.9268 5 25C5 26.0732 5.9 27 7 27C8.1 27 9 26.0732 9 25C9 23.9268 8.1 23 7 23Z" fill="url(#paint5_linear_1495_27778)"/>
<defs>
<linearGradient id="paint0_linear_1495_27778" x1="11.8867" y1="7.99986" x2="19.6581" y2="7.99986" gradientUnits="userSpaceOnUse">
<stop stop-color="#6CBB10"/>
<stop offset="1" stop-color="#C9DE5E"/>
</linearGradient>
<linearGradient id="paint1_linear_1495_27778" x1="11.8867" y1="16.2284" x2="19.6581" y2="16.2284" gradientUnits="userSpaceOnUse">
<stop stop-color="#6CBB10"/>
<stop offset="1" stop-color="#C9DE5E"/>
</linearGradient>
<linearGradient id="paint2_linear_1495_27778" x1="3.2002" y1="15.0856" x2="10.9716" y2="15.0856" gradientUnits="userSpaceOnUse">
<stop stop-color="#6CBB10"/>
<stop offset="1" stop-color="#C9DE5E"/>
</linearGradient>
<linearGradient id="paint3_linear_1495_27778" x1="22.5" y1="25" x2="26.5" y2="25" gradientUnits="userSpaceOnUse">
<stop stop-color="#6CBB10"/>
<stop offset="1" stop-color="#C9DE5E"/>
</linearGradient>
<linearGradient id="paint4_linear_1495_27778" x1="3.2002" y1="22.3997" x2="28.8002" y2="22.3997" gradientUnits="userSpaceOnUse">
<stop stop-color="#6CBB10"/>
<stop offset="1" stop-color="#C9DE5E"/>
</linearGradient>
<linearGradient id="paint5_linear_1495_27778" x1="5" y1="25" x2="9" y2="25" gradientUnits="userSpaceOnUse">
<stop stop-color="#6CBB10"/>
<stop offset="1" stop-color="#C9DE5E"/>
</linearGradient>
</defs>
</svg>
