<svg width="32" height="32" viewBox="0 0 32 32" fill="none" xmlns="http://www.w3.org/2000/svg">
<path d="M16.0003 22.6665L17.3337 19.9998V13.1438C19.6283 12.5478 21.3337 10.4772 21.3337 7.99984C21.3337 5.0585 18.9417 2.6665 16.0003 2.6665C13.059 2.6665 10.667 5.0585 10.667 7.99984C10.667 10.4772 12.3723 12.5478 14.667 13.1438V19.9998L16.0003 22.6665Z" fill="#FFC701"/>
<path d="M21.6897 14.0839L20.979 16.6545C24.4337 17.6092 26.667 19.4452 26.667 21.3332C26.667 23.8559 22.287 26.6665 16.0003 26.6665C9.71366 26.6665 5.33366 23.8559 5.33366 21.3332C5.33366 19.4452 7.56699 17.6092 11.023 16.6532L10.3123 14.0825C5.59633 15.3865 2.66699 18.1639 2.66699 21.3332C2.66699 25.8185 8.52433 29.3332 16.0003 29.3332C23.4763 29.3332 29.3337 25.8185 29.3337 21.3332C29.3337 18.1639 26.4043 15.3865 21.6897 14.0839Z" fill="url(#paint0_linear_1495_27797)"/>
<defs>
<linearGradient id="paint0_linear_1495_27797" x1="2.66699" y1="21.7079" x2="29.3337" y2="21.7079" gradientUnits="userSpaceOnUse">
<stop stop-color="#6CBB10"/>
<stop offset="1" stop-color="#C9DE5E"/>
</linearGradient>
</defs>
</svg>
