<svg width="24" height="25" viewBox="0 0 24 25" fill="none" xmlns="http://www.w3.org/2000/svg">
<path d="M7.39237 14.5819C7.98914 14.5801 8.56333 14.3481 9.00052 13.9322L13.2717 16.4312C13.1285 17.0038 13.1916 17.61 13.4494 18.1388C13.7071 18.6677 14.1422 19.0838 14.6751 19.311C15.208 19.5382 15.8029 19.5613 16.3511 19.3761C16.8992 19.1908 17.3639 18.8096 17.66 18.3023C17.9561 17.7949 18.0638 17.1953 17.9634 16.6133C17.8631 16.0312 17.5613 15.5057 17.1134 15.1328C16.6656 14.7599 16.1015 14.5647 15.5246 14.5828C14.9476 14.601 14.3964 14.8313 13.9717 15.2316L9.70055 12.7327C9.74558 12.558 9.77015 12.3771 9.77424 12.1961L13.9703 9.74045C14.3744 10.1169 14.8925 10.3395 15.4379 10.3711C15.9833 10.4027 16.5226 10.2413 16.9655 9.91393C17.4085 9.58658 17.728 9.11323 17.8704 8.57327C18.0129 8.03332 17.9697 7.45962 17.748 6.94842C17.5264 6.43723 17.1398 6.01963 16.6531 5.7657C16.1664 5.51176 15.6092 5.43694 15.075 5.55378C14.5409 5.67062 14.0622 5.97202 13.7193 6.4074C13.3764 6.84279 13.1902 7.38568 13.1918 7.94499C13.1946 8.14619 13.2212 8.3467 13.2717 8.54091L9.39352 10.8093C9.16863 10.4531 8.85708 10.1629 8.4895 9.96721C8.12192 9.77154 7.71095 9.67716 7.29697 9.69333C6.88299 9.7095 6.48023 9.83568 6.12828 10.0595C5.77633 10.2832 5.48729 10.5969 5.28956 10.9697C5.09182 11.3424 4.9922 11.7615 5.00048 12.1856C5.00875 12.6097 5.12464 13.0243 5.33676 13.3887C5.54888 13.7531 5.84993 14.0547 6.21033 14.2639C6.57073 14.4731 6.97809 14.5827 7.39237 14.5819Z" fill="#5A5A5A"/>
</svg>
